<svg viewBox="0 0 60 61" xmlns="http://www.w3.org/2000/svg" xmlns:xlink="http://www.w3.org/1999/xlink"><path d="M 59.85 29.056 C 59.75 29.014 59.66 29.031 59.584 29.107 L 50.317 38.374 L 50.317 19.597 C 50.317 19.489 50.266 19.414 50.166 19.373 C 50.065 19.331 49.976 19.348 49.9 19.425 L 40.633 28.692 L 40.633 9.914 C 40.625 9.812 40.574 9.742 40.48 9.706 C 40.384 9.669 40.3 9.684 40.225 9.753 L 30.958 19.02 L 30.958 0.242 C 30.955 0.136 30.905 0.063 30.808 0.022 C 30.71 -0.019 30.622 -0.003 30.545 0.07 L 0.07 30.558 C -0.003 30.635 -0.019 30.722 0.022 30.819 C 0.063 30.918 0.136 30.968 0.242 30.969 L 19.009 30.969 L 9.753 40.236 C 9.676 40.313 9.659 40.402 9.7 40.502 C 9.742 40.602 9.817 40.652 9.925 40.652 L 28.688 40.652 L 19.429 49.919 C 19.353 49.997 19.336 50.084 19.376 50.184 C 19.418 50.284 19.492 50.334 19.601 50.334 L 38.368 50.334 L 29.107 59.601 C 29.032 59.679 29.014 59.767 29.056 59.867 C 29.096 59.967 29.171 60.017 29.279 60.017 L 59.756 60.017 C 59.823 60.017 59.881 59.993 59.928 59.947 C 59.976 59.898 60 59.842 60 59.773 L 60 29.29 C 60.004 29.178 59.954 29.1 59.85 29.056 Z M 0.832 30.481 L 30.475 0.832 L 30.475 19.508 L 19.497 30.481 Z M 30.475 20.187 L 30.475 30.481 L 20.186 30.481 Z M 10.511 40.165 L 19.698 30.969 L 30.719 30.969 C 30.786 30.969 30.844 30.946 30.891 30.899 C 30.939 30.85 30.963 30.792 30.963 30.725 L 30.963 19.704 L 40.155 10.51 L 40.155 29.184 L 29.179 40.165 Z M 40.155 29.872 L 40.155 40.164 L 29.865 40.164 Z M 20.189 49.845 L 29.378 40.653 L 40.398 40.653 C 40.466 40.653 40.522 40.63 40.57 40.581 C 40.617 40.534 40.642 40.477 40.642 40.409 L 40.642 29.384 L 49.833 20.187 L 49.833 38.862 L 38.859 49.845 Z M 49.832 39.553 L 49.832 49.845 L 39.545 49.845 Z M 59.512 59.525 L 29.873 59.525 L 39.06 50.333 L 50.076 50.333 C 50.144 50.333 50.201 50.309 50.25 50.261 C 50.297 50.214 50.32 50.156 50.32 50.089 L 50.32 39.065 L 59.512 29.872 Z" fill="var(--token-efbc6c56-80fe-4475-9b37-9684d6e92632, rgb(25, 25, 25))"></path></svg>